<svg width="24" height="24" viewBox="0 0 24 24" fill="none" xmlns="http://www.w3.org/2000/svg">
<path d="M12 0C5.37258 0 0 5.37258 0 12C0 18.6274 5.37258 24 12 24C18.6274 24 24 18.6274 24 12C24 5.37258 18.6274 0 12 0ZM9.27246 9.19629C10.3023 9.08805 11.3486 11.0039 11.6084 13.4756C11.8681 15.947 11.2436 18.038 10.2139 18.1465C9.18401 18.2547 8.13869 16.3389 7.87891 13.8672C7.6192 11.396 8.24291 9.30516 9.27246 9.19629ZM3.27246 9.19629C4.30232 9.08805 5.34862 11.0039 5.6084 13.4756C5.86809 15.947 5.24357 18.038 4.21387 18.1465C3.18401 18.2547 2.13869 16.3389 1.87891 13.8672C1.6192 11.396 2.24291 9.30516 3.27246 9.19629Z" fill="url(#paint0_linear_28_507)"/>
<defs>
<linearGradient id="paint0_linear_28_507" x1="12" y1="0" x2="12" y2="24" gradientUnits="userSpaceOnUse">
<stop stop-color="white"/>
<stop offset="1" stop-color="white"/>
</linearGradient>
</defs>
</svg>
