<svg width="1920" height="1080" viewBox="0 0 1920 1080" fill="none" xmlns="http://www.w3.org/2000/svg">
<rect width="1920" height="1080" fill="#F9F4EB"/>
<path d="M860.384 418.966C845.077 419.179 832.332 419.535 832.048 419.82C831.478 420.39 835.607 423.451 867.432 445.949C881.458 455.846 893.063 464.176 893.206 464.46C893.419 464.816 885.872 470.583 876.332 477.276C839.594 503.263 833.115 508.175 833.115 509.955C833.115 510.311 833.827 510.809 834.753 511.094C835.607 511.308 869.426 511.521 909.866 511.521H983.341V567.767V624.012H953.082H922.823V642.879V661.747H1005.41H1088V642.879V624.012H1059.88H1031.75V567.482V510.952L1018.08 510.525C1010.54 510.311 999.858 509.884 994.447 509.67L984.551 509.243L985.049 463.748L985.548 418.254L936.92 418.396C910.15 418.467 875.762 418.752 860.384 418.966Z" fill="#534FFC"/>
</svg>
