<svg width="1920" height="1080" viewBox="0 0 1920 1080" fill="none" xmlns="http://www.w3.org/2000/svg">
<rect width="1920" height="1080" fill="#202122"/>
<path d="M798.254 452.067V444H806.314V452.067H798.254ZM788.045 452.067V444H796.105V452.067H788.045ZM839.09 452.067V444H847.15V452.067H839.09ZM808.463 452.067V444H816.523V452.067H808.463ZM828.881 452.067V444H836.941V452.067H828.881ZM818.672 452.067V444H826.732V452.067H818.672ZM788.045 462.286V454.218H796.105V462.286H788.045ZM767.627 462.286V454.218H775.687V462.286H767.627ZM859.508 462.286V454.218H867.568V462.286H859.508ZM828.881 462.286V454.218H836.941V462.286H828.881ZM818.672 462.286V454.218H826.732V462.286H818.672ZM777.836 462.286V454.218H785.896V462.286H777.836ZM849.299 462.286V454.218H857.359V462.286H849.299ZM869.717 462.286V454.218H877.777V462.286H869.717ZM808.463 462.286V454.218H816.523V462.286H808.463ZM839.09 462.286V454.218H847.15V462.286H839.09ZM798.254 462.286V454.218H806.314V462.286H798.254ZM879.926 472.504V464.437H887.986V472.504H879.926ZM869.717 472.504V464.437H877.777V472.504H869.717ZM859.508 472.504V464.437H867.568V472.504H859.508ZM767.627 472.504V464.437H775.687V472.504H767.627ZM777.836 472.504V464.437H785.896V472.504H777.836ZM757.418 472.504V464.437H765.478V472.504H757.418ZM869.717 482.723V474.655H877.777V482.723H869.717ZM879.926 482.723V474.655H887.986V482.723H879.926ZM757.418 482.723V474.655H765.478V482.723H757.418ZM767.627 482.723V474.655H775.687V482.723H767.627ZM747.209 492.941V484.874H755.269V492.941H747.209ZM890.136 492.941V484.874H898.195V492.941H890.136ZM879.926 492.941V484.874H887.986V492.941H879.926ZM757.418 492.941V484.874H765.478V492.941H757.418ZM890.136 503.16V495.092H898.195V503.16H890.136ZM757.418 503.16V495.092H765.478V503.16H757.418ZM747.209 503.16V495.092H755.269V503.16H747.209ZM879.926 503.16V495.092H887.986V503.16H879.926ZM737 513.378V505.311H745.06V513.378H737ZM890.136 513.378V505.311H898.195V513.378H890.136ZM879.926 513.378V505.311H887.986V513.378H879.926ZM747.209 513.378V505.311H755.269V513.378H747.209ZM737 523.597V515.529H745.06V523.597H737ZM747.209 523.597V515.529H755.269V523.597H747.209ZM747.209 533.815V525.748H755.269V533.815H747.209ZM737 533.815V525.748H745.06V533.815H737ZM737 544.034V535.966H745.06V544.034H737ZM747.209 544.034V535.966H755.269V544.034H747.209ZM747.209 554.252V546.185H755.269V554.252H747.209ZM737 554.252V546.185H745.06V554.252H737ZM747.209 564.471V556.403H755.269V564.471H747.209ZM737 564.471V556.403H745.06V564.471H737ZM890.136 574.689V566.622H898.195V574.689H890.136ZM879.926 574.689V566.622H887.986V574.689H879.926ZM737 574.689V566.622H745.06V574.689H737ZM747.209 574.689V566.622H755.269V574.689H747.209ZM757.418 584.908V576.84H765.478V584.908H757.418ZM879.926 584.908V576.84H887.986V584.908H879.926ZM747.209 584.908V576.84H755.269V584.908H747.209ZM890.136 584.908V576.84H898.195V584.908H890.136ZM879.926 595.126V587.059H887.986V595.126H879.926ZM747.209 595.126V587.059H755.269V595.126H747.209ZM757.418 595.126V587.059H765.478V595.126H757.418ZM890.136 595.126V587.059H898.195V595.126H890.136ZM879.926 605.345V597.277H887.986V605.345H879.926ZM757.418 605.345V597.277H765.478V605.345H757.418ZM767.627 605.345V597.277H775.687V605.345H767.627ZM869.717 605.345V597.277H877.777V605.345H869.717ZM767.627 615.563V607.496H775.687V615.563H767.627ZM757.418 615.563V607.496H765.478V615.563H757.418ZM777.836 615.563V607.496H785.896V615.563H777.836ZM879.926 615.563V607.496H887.986V615.563H879.926ZM869.717 615.563V607.496H877.777V615.563H869.717ZM859.508 615.563V607.496H867.568V615.563H859.508ZM798.254 625.782V617.714H806.314V625.782H798.254ZM767.627 625.782V617.714H775.687V625.782H767.627ZM777.836 625.782V617.714H785.896V625.782H777.836ZM839.09 625.782V617.714H847.15V625.782H839.09ZM788.045 625.782V617.714H796.105V625.782H788.045ZM849.299 625.782V617.714H857.359V625.782H849.299ZM808.463 625.782V617.714H816.523V625.782H808.463ZM869.717 625.782V617.714H877.777V625.782H869.717ZM859.508 625.782V617.714H867.568V625.782H859.508ZM818.672 625.782V617.714H826.732V625.782H818.672ZM828.881 625.782V617.714H836.941V625.782H828.881ZM798.254 636V627.933H806.314V636H798.254ZM788.045 636V627.933H796.105V636H788.045ZM808.463 636V627.933H816.523V636H808.463ZM839.09 636V627.933H847.15V636H839.09ZM818.672 636V627.933H826.732V636H818.672ZM828.881 636V627.933H836.941V636H828.881Z" fill="#A5A4E7"/>
<path d="M941.072 503.16V495.092H949.131V503.16H941.072ZM930.863 503.16V495.092H938.922V503.16H930.863ZM1012.53 503.16V495.092H1020.59V503.16H1012.53ZM1022.74 503.16V495.092H1030.8V503.16H1022.74ZM941.072 513.378V505.311H949.131V513.378H941.072ZM1022.74 513.378V505.311H1030.8V513.378H1022.74ZM930.863 513.378V505.311H938.922V513.378H930.863ZM1012.53 513.378V505.311H1020.59V513.378H1012.53ZM941.072 523.597V515.529H949.131V523.597H941.072ZM1022.74 523.597V515.529H1030.8V523.597H1022.74ZM930.863 523.597V515.529H938.922V523.597H930.863ZM1012.53 523.597V515.529H1020.59V523.597H1012.53ZM1022.74 533.815V525.748H1030.8V533.815H1022.74ZM930.863 533.815V525.748H938.922V533.815H930.863ZM1012.53 533.815V525.748H1020.59V533.815H1012.53ZM941.072 533.815V525.748H949.131V533.815H941.072ZM1012.53 544.034V535.966H1020.59V544.034H1012.53ZM1022.74 544.034V535.966H1030.8V544.034H1022.74ZM941.072 544.034V535.966H949.131V544.034H941.072ZM930.863 544.034V535.966H938.922V544.034H930.863ZM930.863 554.252V546.185H938.922V554.252H930.863ZM941.072 554.252V546.185H949.131V554.252H941.072ZM1012.53 554.252V546.185H1020.59V554.252H1012.53ZM1022.74 554.252V546.185H1030.8V554.252H1022.74ZM941.072 564.471V556.403H949.131V564.471H941.072ZM1012.53 564.471V556.403H1020.59V564.471H1012.53ZM930.863 564.471V556.403H938.922V564.471H930.863ZM1022.74 564.471V556.403H1030.8V564.471H1022.74ZM1012.53 574.689V566.622H1020.59V574.689H1012.53ZM930.863 574.689V566.622H938.922V574.689H930.863ZM1022.74 574.689V566.622H1030.8V574.689H1022.74ZM941.072 574.689V566.622H949.131V574.689H941.072ZM930.863 584.908V576.84H938.922V584.908H930.863ZM1022.74 584.908V576.84H1030.8V584.908H1022.74ZM941.072 584.908V576.84H949.131V584.908H941.072ZM1012.53 584.908V576.84H1020.59V584.908H1012.53ZM930.863 595.126V587.059H938.922V595.126H930.863ZM1022.74 595.126V587.059H1030.8V595.126H1022.74ZM941.072 595.126V587.059H949.131V595.126H941.072ZM1012.53 595.126V587.059H1020.59V595.126H1012.53ZM1022.74 605.345V597.277H1030.8V605.345H1022.74ZM930.863 605.345V597.277H938.922V605.345H930.863ZM941.072 605.345V597.277H949.131V605.345H941.072ZM1012.53 605.345V597.277H1020.59V605.345H1012.53ZM1022.74 615.563V607.496H1030.8V615.563H1022.74ZM1012.53 615.563V607.496H1020.59V615.563H1012.53ZM951.281 615.563V607.496H959.34V615.563H951.281ZM941.072 615.563V607.496H949.131V615.563H941.072ZM930.863 615.563V607.496H938.922V615.563H930.863ZM1002.33 615.563V607.496H1010.39V615.563H1002.33ZM1012.53 625.782V617.714H1020.59V625.782H1012.53ZM992.117 625.782V617.714H1000.18V625.782H992.117ZM981.908 625.782V617.714H989.967V625.782H981.908ZM971.699 625.782V617.714H979.758V625.782H971.699ZM961.49 625.782V617.714H969.549V625.782H961.49ZM951.281 625.782V617.714H959.34V625.782H951.281ZM941.072 625.782V617.714H949.131V625.782H941.072ZM1022.74 625.782V617.714H1030.8V625.782H1022.74ZM971.699 636V627.933H979.758V636H971.699ZM961.49 636V627.933H969.549V636H961.49ZM951.281 636V627.933H959.34V636H951.281ZM981.908 636V627.933H989.967V636H981.908ZM1012.53 636V627.933H1020.59V636H1012.53ZM1022.74 636V627.933H1030.8V636H1022.74Z" fill="#A5A4E7"/>
<path d="M1124.9 503.16V495.092H1132.95V503.16H1124.9ZM1114.69 503.16V495.092H1122.75V503.16H1114.69ZM1104.48 503.16V495.092H1112.54V503.16H1104.48ZM1135.1 503.16V495.092H1143.16V503.16H1135.1ZM1094.27 503.16V495.092H1102.33V503.16H1094.27ZM1145.31 503.16V495.092H1153.37V503.16H1145.31ZM1155.52 513.378V505.311H1163.58V513.378H1155.52ZM1114.69 513.378V505.311H1122.75V513.378H1114.69ZM1084.06 513.378V505.311H1092.12V513.378H1084.06ZM1104.48 513.378V505.311H1112.54V513.378H1104.48ZM1145.31 513.378V505.311H1153.37V513.378H1145.31ZM1094.27 513.378V505.311H1102.33V513.378H1094.27ZM1135.1 513.378V505.311H1143.16V513.378H1135.1ZM1124.9 513.378V505.311H1132.95V513.378H1124.9ZM1094.27 523.597V515.529H1102.33V523.597H1094.27ZM1165.73 523.597V515.529H1173.79V523.597H1165.73ZM1084.06 523.597V515.529H1092.12V523.597H1084.06ZM1073.85 523.597V515.529H1081.91V523.597H1073.85ZM1145.31 523.597V515.529H1153.37V523.597H1145.31ZM1155.52 523.597V515.529H1163.58V523.597H1155.52ZM1155.52 533.815V525.748H1163.58V533.815H1155.52ZM1084.06 533.815V525.748H1092.12V533.815H1084.06ZM1165.73 533.815V525.748H1173.79V533.815H1165.73ZM1073.85 533.815V525.748H1081.91V533.815H1073.85ZM1165.73 544.034V535.966H1173.79V544.034H1165.73ZM1073.85 544.034V535.966H1081.91V544.034H1073.85ZM1063.64 544.034V535.966H1071.7V544.034H1063.64ZM1175.94 544.034V535.966H1184V544.034H1175.94ZM1175.94 554.252V546.185H1184V554.252H1175.94ZM1165.73 554.252V546.185H1173.79V554.252H1165.73ZM1063.64 554.252V546.185H1071.7V554.252H1063.64ZM1073.85 554.252V546.185H1081.91V554.252H1073.85ZM1165.73 564.471V556.403H1173.79V564.471H1165.73ZM1175.94 564.471V556.403H1184V564.471H1175.94ZM1084.06 564.471V556.403H1092.12V564.471H1084.06ZM1094.27 564.471V556.403H1102.33V564.471H1094.27ZM1114.69 564.471V556.403H1122.75V564.471H1114.69ZM1124.9 564.471V556.403H1132.95V564.471H1124.9ZM1135.1 564.471V556.403H1143.16V564.471H1135.1ZM1145.31 564.471V556.403H1153.37V564.471H1145.31ZM1155.52 564.471V556.403H1163.58V564.471H1155.52ZM1104.48 564.471V556.403H1112.54V564.471H1104.48ZM1063.64 564.471V556.403H1071.7V564.471H1063.64ZM1073.85 564.471V556.403H1081.91V564.471H1073.85ZM1063.64 574.689V566.622H1071.7V574.689H1063.64ZM1155.52 574.689V566.622H1163.58V574.689H1155.52ZM1145.31 574.689V566.622H1153.37V574.689H1145.31ZM1135.1 574.689V566.622H1143.16V574.689H1135.1ZM1124.9 574.689V566.622H1132.95V574.689H1124.9ZM1114.69 574.689V566.622H1122.75V574.689H1114.69ZM1104.48 574.689V566.622H1112.54V574.689H1104.48ZM1094.27 574.689V566.622H1102.33V574.689H1094.27ZM1084.06 574.689V566.622H1092.12V574.689H1084.06ZM1165.73 574.689V566.622H1173.79V574.689H1165.73ZM1175.94 574.689V566.622H1184V574.689H1175.94ZM1073.85 574.689V566.622H1081.91V574.689H1073.85ZM1063.64 584.908V576.84H1071.7V584.908H1063.64ZM1073.85 584.908V576.84H1081.91V584.908H1073.85ZM1063.64 595.126V587.059H1071.7V595.126H1063.64ZM1073.85 595.126V587.059H1081.91V595.126H1073.85ZM1165.73 605.345V597.277H1173.79V605.345H1165.73ZM1175.94 605.345V597.277H1184V605.345H1175.94ZM1073.85 605.345V597.277H1081.91V605.345H1073.85ZM1084.06 605.345V597.277H1092.12V605.345H1084.06ZM1094.27 615.563V607.496H1102.33V615.563H1094.27ZM1175.94 615.563V607.496H1184V615.563H1175.94ZM1155.52 615.563V607.496H1163.58V615.563H1155.52ZM1073.85 615.563V607.496H1081.91V615.563H1073.85ZM1084.06 615.563V607.496H1092.12V615.563H1084.06ZM1165.73 615.563V607.496H1173.79V615.563H1165.73ZM1124.9 625.782V617.714H1132.95V625.782H1124.9ZM1084.06 625.782V617.714H1092.12V625.782H1084.06ZM1114.69 625.782V617.714H1122.75V625.782H1114.69ZM1104.48 625.782V617.714H1112.54V625.782H1104.48ZM1155.52 625.782V617.714H1163.58V625.782H1155.52ZM1094.27 625.782V617.714H1102.33V625.782H1094.27ZM1165.73 625.782V617.714H1173.79V625.782H1165.73ZM1145.31 625.782V617.714H1153.37V625.782H1145.31ZM1135.1 625.782V617.714H1143.16V625.782H1135.1ZM1124.9 636V627.933H1132.95V636H1124.9ZM1114.69 636V627.933H1122.75V636H1114.69ZM1104.48 636V627.933H1112.54V636H1104.48ZM1094.27 636V627.933H1102.33V636H1094.27ZM1145.31 636V627.933H1153.37V636H1145.31ZM1135.1 636V627.933H1143.16V636H1135.1Z" fill="#A5A4E7"/>
</svg>
