<svg width="1920" height="1080" viewBox="0 0 1920 1080" fill="none" xmlns="http://www.w3.org/2000/svg">
<rect width="1920" height="1080" fill="#202122"/>
<path d="M658.193 463.201L677.393 482.402H696.587V501.598L715.787 520.799H734.987V559.201H715.787L696.587 578.402V597.598H677.393L658.193 616.799V636H619.793V616.799L600.594 597.598H581.4V577.254L563.348 559.201H543V520.799H562.2L581.4 501.598V482.402H600.594L619.793 463.201V444H658.193V463.201Z" fill="#A5A4E7"/>
<path d="M910.597 609H858.763V600.404H876.059V479.432H841.467V488.08H832.819V496.729H824.224V505.324H815.629V488.08H824.224V462.135H832.819V470.783H945.136V462.135H953.784V488.08H945.136V505.324H936.488V479.432H893.302V600.404H910.597V609Z" fill="#A5A4E7"/>
<path d="M1001.14 609H957.949V600.404H949.302V591.756H940.654V574.459H932.059V548.566H940.654V531.27H949.302V539.918H1001.14V531.27H992.488V522.621H957.949V513.973H1001.14V522.621H1009.78V531.27H1018.43V548.566H949.302V574.459H957.949V591.756H966.597V600.404H1001.14V609ZM957.949 531.27H949.302V522.621H957.949V531.27ZM1018.43 591.756H1009.78V583.107H1018.43V591.756ZM1009.78 600.404H1001.14V591.756H1009.78V600.404Z" fill="#A5A4E7"/>
<path d="M1074.59 609H1048.65V600.404H1040V522.621H1031.4V513.973H1040V505.324H1048.65V496.729H1057.29V513.973H1083.24V522.621H1057.29V600.404H1074.59V609ZM1083.24 600.404H1074.59V591.756H1083.24V600.404Z" fill="#A5A4E7"/>
<path d="M1130.7 609H1096.16V600.404H1104.75V470.783H1096.16V462.135H1104.75V453.486H1113.4V444.891H1122.05V522.621H1130.7V531.27H1122.05V600.404H1130.7V609ZM1195.5 609H1160.91V600.404H1169.56V531.27H1160.91V522.621H1130.7V513.973H1169.56V522.621H1178.21V531.27H1186.85V600.404H1195.5V609Z" fill="#A5A4E7"/>
<path d="M1243.12 609H1208.58V600.404H1217.17V531.27H1208.58V522.621H1217.17V513.973H1225.82V505.324H1234.47V522.621H1243.12V531.27H1234.47V600.404H1243.12V609ZM1277.66 531.27H1260.41V522.621H1243.12V513.973H1277.66V531.27Z" fill="#A5A4E7"/>
<path d="M1377 609H1359.7V600.404H1342.46V591.756H1351.06V557.162H1342.46V548.566H1351.06V531.27H1342.46V522.621H1316.52V531.27H1307.87V539.918H1290.63V531.27H1299.22V522.621H1307.87V513.973H1351.06V522.621H1359.7V531.27H1368.35V600.404H1377V609ZM1342.46 565.811H1316.52V557.162H1342.46V565.811ZM1342.46 609H1307.87V600.404H1299.22V591.756H1290.63V574.459H1299.22V565.811H1316.52V574.459H1307.87V591.756H1316.52V600.404H1342.46V609Z" fill="#A5A4E7"/>
</svg>
